<svg width="89.0481px" height="89.0481px" viewBox="0 0 89.0481 89.0481" xmlns="http://www.w3.org/2000/svg"><defs><style>.a{fill:#3abb9b;}.b,.c{fill:#231f20;}.b,.e,.g{fill-rule:evenodd;}.d{fill:#f58345;}.e{fill:#ffd53a;}.f,.g{fill:#806a50;}</style></defs><circle class="a" cx="44.5241" cy="44.5241" r="43.524"/><path class="b" d="M44.5241,0a44.5251,44.5251,0,1,1-31.483,13.0411A44.3855,44.3855,0,0,1,44.5241,0Zm30.069,14.455A42.5244,42.5244,0,1,0,87.048,44.5241,42.3922,42.3922,0,0,0,74.5931,14.455Z"/><ellipse class="c" cx="44.5241" cy="40.9765" rx="29.0681" ry="27.851"/><path class="b" d="M44.5241,12.1255A30.627,30.627,0,0,1,65.77,20.564a28.0252,28.0252,0,0,1,0,40.8251,30.9647,30.9647,0,0,1-42.4913,0,28.0252,28.0252,0,0,1,0-40.8251,30.6275,30.6275,0,0,1,21.2457-8.4385ZM64.387,22.0017a28.9845,28.9845,0,0,0-39.7259,0,26.0429,26.0429,0,0,0,0,37.95,28.9848,28.9848,0,0,0,39.7259,0,26.0426,26.0426,0,0,0,0-37.95Z"/><ellipse class="d" cx="44.5241" cy="39.2475" rx="17.9424" ry="17.8536"/><path class="e" d="M64.0851,83.3772a43.574,43.574,0,0,1-39.1221,0c-.0516-.5809-.08-1.1679-.08-1.7621a19.6407,19.6407,0,0,1,39.2814,0C64.1648,82.2093,64.1367,82.7963,64.0851,83.3772Z"/><path class="b" d="M64.5344,84.2678a44.4681,44.4681,0,0,1-40.0207,0,.9977.9977,0,0,1-.5479-.866c-.0258-.2988-.0456-.5853-.0581-.8575-.0159-.35-.0244-.6624-.0244-.9292a20.6408,20.6408,0,0,1,41.2815,0c0,.2668-.0085.5789-.0244.9292-.0133.2906-.0348.5979-.0632.9187a.995.995,0,0,1-.5437.8031l.0009.0017ZM54.36,85.87a42.2253,42.2253,0,0,0,8.7738-3.1348l.0145-.2772c.01-.2364.0164-.5159.0164-.8431a18.6407,18.6407,0,1,0-37.2813,0c0,.3272.006.6067.0165.8431l.0144.2772A42.6847,42.6847,0,0,0,54.36,85.87Z"/><circle class="f" cx="44.5241" cy="66.439" r="7.8846" transform="translate(-28.189 99.7458) rotate(-80.7825)"/><path class="b" d="M44.5241,57.5544a8.8855,8.8855,0,1,1-6.2822,2.6025,8.8564,8.8564,0,0,1,6.2822-2.6025Zm4.8682,4.0164a6.8851,6.8851,0,1,0,2.0163,4.8682A6.863,6.863,0,0,0,49.3923,61.5708Z"/><path class="g" d="M63.5386,47.3567a4.9312,4.9312,0,1,1-4.9312,4.9312A4.931,4.931,0,0,1,63.5386,47.3567Z"/><path class="b" d="M63.5386,46.3567a5.9315,5.9315,0,1,1-4.1939,1.7373,5.9129,5.9129,0,0,1,4.1939-1.7373Zm2.78,3.1513a3.932,3.932,0,1,0,1.1512,2.78A3.92,3.92,0,0,0,66.3185,49.508Z"/><path class="g" d="M25.51,47.3567a4.9312,4.9312,0,1,1-4.9311,4.9312A4.931,4.931,0,0,1,25.51,47.3567Z"/><path class="b" d="M25.51,46.3567a5.9317,5.9317,0,1,1-4.1938,1.7373A5.9133,5.9133,0,0,1,25.51,46.3567Zm2.78,3.1513a3.9323,3.9323,0,1,0,1.1511,2.78A3.92,3.92,0,0,0,28.29,49.508Z"/><circle class="f" cx="44.5241" cy="47.126" r="19.5001"/><path class="b" d="M44.5241,26.6258A20.5012,20.5012,0,1,1,30.0285,32.63a20.4366,20.4366,0,0,1,14.4956-6.0047Zm13.0816,7.4186A18.5006,18.5006,0,1,0,63.0241,47.126,18.4427,18.4427,0,0,0,57.6057,34.0444Z"/><path class="b" d="M60.8043,36.76c-3.5272,3.0761-9.5026,5.0987-16.28,5.0987S31.771,39.8361,28.2438,36.76a20.54,20.54,0,0,1,32.56,0Z"/><path class="b" d="M61.4605,37.51a20.7764,20.7764,0,0,1-7.435,3.9549,33.0823,33.0823,0,0,1-19.0029,0,20.7764,20.7764,0,0,1-7.435-3.9549l-.7058-.6156.5729-.7439a21.5271,21.5271,0,0,1,34.1388,0l.5731.7439-.7061.6156Zm-8.0286,2.0484a19.757,19.757,0,0,0,5.9707-2.9444,19.53,19.53,0,0,0-29.757,0,19.7564,19.7564,0,0,0,5.9706,2.9444,31.1646,31.1646,0,0,0,17.8157,0Z"/><circle class="c" cx="36.1803" cy="52.2879" r="2.5313"/><path class="b" d="M52.8676,49.7566a2.5313,2.5313,0,1,1-2.5314,2.5313A2.5312,2.5312,0,0,1,52.8676,49.7566Z"/></svg>