<svg width="89.0481px" height="89.0481px" viewBox="0 0 89.0481 89.0481" xmlns="http://www.w3.org/2000/svg"><defs><style>.a{fill:#a7d8b7;}.b{fill:#231f20;}.b,.c,.d,.e,.h{fill-rule:evenodd;}.c,.f{fill:#fed09e;}.d{fill:#e6e7e8;}.e{fill:#da7776;}.g{fill:#fff;}.h{fill:#c5a37d;}</style></defs><circle class="a" cx="44.5241" cy="44.524" r="43.524"/><path class="b" d="M44.5241,0a44.5249,44.5249,0,1,1-31.483,13.041A44.3855,44.3855,0,0,1,44.5241,0Zm30.069,14.455A42.5243,42.5243,0,1,0,87.048,44.524,42.3912,42.3912,0,0,0,74.5931,14.455Z"/><path class="c" d="M63.5386,47.3567a4.9312,4.9312,0,1,1-4.9312,4.9311A4.9309,4.9309,0,0,1,63.5386,47.3567Z"/><path class="b" d="M63.5386,46.3566a5.9317,5.9317,0,1,1-4.1939,1.7374,5.9131,5.9131,0,0,1,4.1939-1.7374Zm2.78,3.1513a3.9322,3.9322,0,1,0,1.1512,2.78A3.92,3.92,0,0,0,66.3185,49.5079Z"/><path class="c" d="M25.51,47.3567a4.9312,4.9312,0,1,1-4.9311,4.9311A4.931,4.931,0,0,1,25.51,47.3567Z"/><path class="b" d="M25.51,46.3566a5.9319,5.9319,0,1,1-4.1938,1.7374A5.9134,5.9134,0,0,1,25.51,46.3566Zm2.78,3.1513a3.9324,3.9324,0,1,0,1.1511,2.78A3.92,3.92,0,0,0,28.29,49.5079Z"/><path class="d" d="M44.5241,29.3541c13.655,0,24.7246,5.9939,24.7246,13.3875s-11.07,13.3878-24.7246,13.3878S19.7994,50.1355,19.7994,42.7416,30.869,29.3541,44.5241,29.3541Z"/><path class="b" d="M44.5241,28.3541A38.5176,38.5176,0,0,1,62.48,32.3963c4.8,2.5985,7.769,6.2526,7.769,10.3453S67.28,50.4881,62.48,53.0872a38.5176,38.5176,0,0,1-17.9557,4.0422,38.518,38.518,0,0,1-17.9558-4.0422c-4.8-2.5991-7.7689-6.2529-7.7689-10.3456s2.9693-7.7468,7.7689-10.3453a38.518,38.518,0,0,1,17.9558-4.0422Zm17.01,5.8a36.5132,36.5132,0,0,0-17.01-3.8,36.5133,36.5133,0,0,0-17.01,3.8C23.366,36.4,20.8,39.44,20.8,42.7416s2.5662,6.3414,6.7144,8.5876a36.5133,36.5133,0,0,0,17.01,3.8,36.5132,36.5132,0,0,0,17.01-3.8c4.1482-2.2462,6.7144-5.2866,6.7144-8.5876S65.6821,36.4,61.5342,34.1543Z"/><path class="e" d="M64.0851,83.3771a43.5732,43.5732,0,0,1-39.1221,0c-.0516-.5808-.08-1.1679-.08-1.762a19.6407,19.6407,0,0,1,39.2814,0C64.1648,82.2092,64.1367,82.7963,64.0851,83.3771Z"/><path class="b" d="M64.5344,84.2677a44.467,44.467,0,0,1-40.0207,0,.9977.9977,0,0,1-.5479-.8659c-.0258-.2988-.0456-.5854-.0581-.8575-.0159-.35-.0244-.6625-.0244-.9292a20.6408,20.6408,0,0,1,41.2815,0c0,.2667-.0085.5788-.0244.9292-.0133.29-.0348.5978-.0632.9187a.995.995,0,0,1-.5437.803l.0009.0017ZM54.36,85.87a42.2255,42.2255,0,0,0,8.7738-3.1349l.0145-.2772c.01-.2364.0164-.5159.0164-.843a18.6407,18.6407,0,1,0-37.2813,0c0,.3271.006.6066.0165.843l.0144.2772A42.686,42.686,0,0,0,54.36,85.87Z"/><circle class="f" cx="44.5241" cy="66.439" r="7.8845" transform="translate(-33.9387 50.9428) rotate(-45)"/><path class="b" d="M44.5241,57.5543a8.8855,8.8855,0,1,1-6.2822,2.6025,8.8564,8.8564,0,0,1,6.2822-2.6025Zm4.8682,4.0164a6.8852,6.8852,0,1,0,2.0163,4.8683A6.8634,6.8634,0,0,0,49.3923,61.5707Z"/><circle class="f" cx="44.5241" cy="47.126" r="19.5001"/><path class="b" d="M44.5241,26.6258A20.501,20.501,0,1,1,30.0285,32.63a20.436,20.436,0,0,1,14.4956-6.0046Zm13.0816,7.4185A18.5007,18.5007,0,1,0,63.0241,47.126,18.4427,18.4427,0,0,0,57.6057,34.0443Z"/><path class="b" d="M40.6091,53.882a.997.997,0,0,1-1.3045-1.508,7.663,7.663,0,0,1,5.0939-2.1169,8.0332,8.0332,0,0,1,5.0624,2.1013.9988.9988,0,0,1-1.2733,1.5392,6.14,6.14,0,0,0-3.805-1.6483A5.7583,5.7583,0,0,0,40.6091,53.882Z"/><path class="b" d="M32.95,50.3637a.9975.9975,0,1,1-1.0392,1.703l-8.1564-4.9714a.9975.9975,0,1,1,1.0392-1.703Z"/><path class="b" d="M57.1374,52.0667a.9975.9975,0,1,1-1.0392-1.703l8.1564-4.9714a.9975.9975,0,1,1,1.0392,1.703Z"/><path class="g" d="M33.3762,48.0206H39.005a1.6858,1.6858,0,0,1,1.6858,1.6858v4.8823a1.6861,1.6861,0,0,1-1.6861,1.6861H33.3765a1.6857,1.6857,0,0,1-1.6857-1.6857V49.706A1.6854,1.6854,0,0,1,33.3762,48.0206Z"/><path class="b" d="M33.3765,47.0205H39.005a2.679,2.679,0,0,1,1.8975.7883c.0216.0216.042.0442.061.0669a2.6772,2.6772,0,0,1,.7273,1.83v4.8827a2.6914,2.6914,0,0,1-2.6858,2.6861H33.3765a2.6914,2.6914,0,0,1-2.6858-2.6861V49.706a2.6787,2.6787,0,0,1,.79-1.8952l-.002-.002a2.6793,2.6793,0,0,1,1.8975-.7883Zm5.6285,2H33.3765a.6847.6847,0,0,0-.4836.2021l-.0019-.0019-.0017.0019a.6815.6815,0,0,0-.1985.4833v4.8827a.69.69,0,0,0,.6857.686H39.005a.69.69,0,0,0,.6857-.686V49.706a.6833.6833,0,0,0-.1684-.4512l-.0337-.0321A.6844.6844,0,0,0,39.005,49.0206Z"/><path class="g" d="M50.0425,48.0206h5.6288a1.6858,1.6858,0,0,1,1.6858,1.6858v4.8823a1.6861,1.6861,0,0,1-1.6861,1.6861H50.0428a1.6857,1.6857,0,0,1-1.6857-1.6857V49.706A1.6854,1.6854,0,0,1,50.0425,48.0206Z"/><path class="b" d="M50.0428,47.0205h5.6285a2.679,2.679,0,0,1,1.8975.7883c.0216.0216.042.0442.061.0669a2.6772,2.6772,0,0,1,.7273,1.83v4.8827a2.6914,2.6914,0,0,1-2.6858,2.6861H50.0428a2.6914,2.6914,0,0,1-2.6858-2.6861V49.706a2.6787,2.6787,0,0,1,.79-1.8952l-.002-.002a2.6793,2.6793,0,0,1,1.8975-.7883Zm5.6285,2H50.0428a.6847.6847,0,0,0-.4836.2021l-.0019-.0019-.0017.0019a.6815.6815,0,0,0-.1985.4833v4.8827a.69.69,0,0,0,.6857.686h5.6285a.69.69,0,0,0,.6857-.686V49.706a.6833.6833,0,0,0-.1684-.4512l-.0337-.0321A.6844.6844,0,0,0,55.6713,49.0206Z"/><path class="h" d="M38.77,42.6985a1,1,0,0,1-.4921-1.9377,24.993,24.993,0,0,1,6.2462-.7773,26.368,26.368,0,0,1,6.2345.7773.9968.9968,0,0,1-.4689,1.9377,24.3962,24.3962,0,0,0-5.7656-.7228A23.0239,23.0239,0,0,0,38.77,42.6985Z"/><path class="h" d="M41.021,38.4766a.9993.9993,0,1,1-.3435-1.9689,21.5109,21.5109,0,0,1,3.8131-.3116,26.49,26.49,0,0,1,3.8568.3076,1,1,0,0,1-.297,1.9769,24.5141,24.5141,0,0,0-3.5677-.2923A19.5711,19.5711,0,0,0,41.021,38.4766Z"/></svg>