<svg width="89.0481px" height="89.0481px" viewBox="0 0 89.0481 89.0481" xmlns="http://www.w3.org/2000/svg"><defs><style>.a{fill:#849fcf;}.b{fill:#231f20;}.b,.c,.d,.f{fill-rule:evenodd;}.c{fill:#94d4ce;}.d{fill:#ffcb05;}.e,.f{fill:#8b7459;}</style></defs><circle class="a" cx="44.524" cy="44.5241" r="43.524"/><path class="b" d="M44.524,0A44.5249,44.5249,0,1,1,13.041,13.0411,44.3854,44.3854,0,0,1,44.524,0ZM74.5931,14.455A42.5243,42.5243,0,1,0,87.048,44.5241,42.3922,42.3922,0,0,0,74.5931,14.455Z"/><path class="b" d="M44.52,16.8035c8.9059,0,22.5654,3.2564,22.2191,16.7482a74.3641,74.3641,0,0,1-2.6286,18.6894H24.2172a92.0676,92.0676,0,0,1-1.44-18.6894C23.1587,20.0565,35.6156,16.8035,44.52,16.8035Z"/><path class="b" d="M44.52,15.8034c.2248,0,.5485.0054.9757.0162,4.5257.1162,10.0213,1.0579,14.4051,3.6068a14.9043,14.9043,0,0,1,7.8448,13.6253c0,.0737-.0036.2528-.01.5235a89.4548,89.4548,0,0,1-.729,9.5517,64.6753,64.6753,0,0,1-1.9386,9.3914l-.209.7229H23.3776l-.1449-.8283c-.5748-3.2927-.9819-6.4749-1.2237-9.6066a87.8869,87.8869,0,0,1-.2279-9.2818c.1724-6.097,2.6838-10.2336,6.2433-12.9753C32.73,16.9248,39.2386,15.8034,44.52,15.8034Zm.9286,2.0084c-.2171-.0054-.53-.0082-.9286-.0082-4.9383,0-10.99,1.0216-15.2768,4.3239-3.117,2.401-5.3172,6.0475-5.47,11.4514a85.8377,85.8377,0,0,0,.2279,9.0788c.2157,2.7953.5686,5.6418,1.0593,8.5833H63.3571a63.487,63.487,0,0,0,1.6722-8.3721,87.5076,87.5076,0,0,0,.7138-9.3407c.0014-.0655.0025-.22.0025-.4765a13.012,13.012,0,0,0-6.8448-11.8984C54.8433,18.794,49.7007,17.9209,45.4487,17.8118Z"/><path class="c" d="M64.0851,83.3771a43.5732,43.5732,0,0,1-39.1221,0c-.0516-.5808-.08-1.1678-.08-1.762a19.6407,19.6407,0,1,1,39.2814,0C64.1647,82.2093,64.1367,82.7963,64.0851,83.3771Z"/><path class="b" d="M64.5344,84.2678a44.4681,44.4681,0,0,1-40.0207,0,.9969.9969,0,0,1-.5479-.866c-.0258-.2991-.0457-.5856-.0581-.8575-.0159-.35-.0244-.6624-.0244-.9292a20.6408,20.6408,0,0,1,41.2815,0c0,.2668-.0085.5789-.0244.9292-.0133.29-.0349.5976-.0632.9187a.9951.9951,0,0,1-.5437.8031l.0009.0017ZM54.36,85.87a42.2274,42.2274,0,0,0,8.7738-3.1348l.0144-.2773c.0105-.2364.0165-.5159.0165-.843a18.6407,18.6407,0,1,0-37.2813,0c0,.3271.006.6066.0164.843l.0145.2773A42.6847,42.6847,0,0,0,54.36,85.87Z"/><path class="d" d="M44.524,55.3272c6.2876,0,11.3843,6.0449,11.3843,13.5023S50.8116,82.3317,44.524,82.3317,33.14,76.2868,33.14,68.83,38.2365,55.3272,44.524,55.3272Zm0,3.3982c-4.3545,0-7.8845,4.4447-7.8845,9.9275S40.17,78.58,44.524,78.58s7.8846-4.4448,7.8846-9.9275S48.8786,58.7254,44.524,58.7254Z"/><path class="b" d="M44.524,54.3271a11.5222,11.5222,0,0,1,8.8115,4.31,16.3243,16.3243,0,0,1,0,20.3845,11.1621,11.1621,0,0,1-17.623,0,16.3246,16.3246,0,0,1,0-20.3845,11.5226,11.5226,0,0,1,8.8115-4.31Zm7.2882,5.5993a9.1786,9.1786,0,0,0-14.5763,0,14.3491,14.3491,0,0,0,0,17.8061,9.1786,9.1786,0,0,0,14.5763,0,14.3491,14.3491,0,0,0,0-17.8061ZM44.524,57.7253a8.136,8.136,0,0,0-6.3564,3.2868,12.81,12.81,0,0,0,0,15.2815,7.79,7.79,0,0,0,12.7128,0,12.81,12.81,0,0,0,0-15.2815,8.1357,8.1357,0,0,0-6.3564-3.2868Zm4.794,4.5289a5.8084,5.8084,0,0,0-9.5879,0,10.8374,10.8374,0,0,0,0,12.7973,5.8084,5.8084,0,0,0,9.5879,0,10.8378,10.8378,0,0,0,0-12.7973Z"/><circle class="e" cx="44.524" cy="66.439" r="7.8846" transform="translate(-21.9478 21.964) rotate(-22.3863)"/><path class="b" d="M44.524,57.5544a8.8855,8.8855,0,1,1-6.2821,2.6025,8.8564,8.8564,0,0,1,6.2821-2.6025Zm4.8683,4.0164a6.8853,6.8853,0,1,0,2.0162,4.8682A6.8633,6.8633,0,0,0,49.3923,61.5708Z"/><path class="f" d="M63.5386,47.3567a4.9312,4.9312,0,1,1-4.9312,4.9312A4.931,4.931,0,0,1,63.5386,47.3567Z"/><path class="b" d="M63.5386,46.3567a5.9317,5.9317,0,1,1-4.1939,1.7373,5.9132,5.9132,0,0,1,4.1939-1.7373Zm2.78,3.1512a3.9324,3.9324,0,1,0,1.1511,2.78A3.92,3.92,0,0,0,66.3185,49.5079Z"/><path class="f" d="M25.51,47.3567a4.9312,4.9312,0,1,1-4.9311,4.9312A4.9311,4.9311,0,0,1,25.51,47.3567Z"/><path class="b" d="M25.51,46.3567a5.9317,5.9317,0,1,1-4.1938,1.7373A5.9133,5.9133,0,0,1,25.51,46.3567Zm2.78,3.1512a3.9324,3.9324,0,1,0,1.1511,2.78A3.92,3.92,0,0,0,28.29,49.5079Z"/><circle class="e" cx="44.524" cy="47.126" r="19.5001"/><path class="b" d="M44.524,26.6258A20.5012,20.5012,0,1,1,30.0285,32.63,20.4369,20.4369,0,0,1,44.524,26.6258Zm13.0816,7.4186A18.5,18.5,0,1,0,63.0241,47.126,18.4427,18.4427,0,0,0,57.6056,34.0444Z"/><path class="b" d="M36.18,49.7565a2.5314,2.5314,0,1,1-2.5314,2.5314A2.5313,2.5313,0,0,1,36.18,49.7565Z"/><path class="b" d="M52.8675,49.7565a2.5314,2.5314,0,1,1-2.5313,2.5314A2.5313,2.5313,0,0,1,52.8675,49.7565Z"/><path class="b" d="M65.3366,38.4344,59.0556,26.528,44.524,24.8406h0L29.9922,26.528l-6.281,11.9064c-.019,2.9407-.4184,7.6734.2985,10.3626,2.66,9.9782,6.7394,20.1132,20.5364,20.1206,13.7206.0071,17.6786-10.3345,20.3273-20.2952.8093-3.0438.3586-6.8451.4632-10.188ZM48.88,64.03c-2.1827-.1553-2.9319-2.3961-4.3555-2.2988-1.4235-.0973-2.1727,2.1435-4.3554,2.2988-11.1135.792-18.4493-19.9386-11.4273-27.8628A8.5334,8.5334,0,0,1,36,33.2943c3.0671.29,6.2385,2.005,8.5241,1.954h0c2.2624.05,5.3921-1.6444,8.43-1.9449a8.6119,8.6119,0,0,1,7.31,2.8159C67.36,43.9733,60.0219,64.8238,48.88,64.03Z"/><path class="b" d="M64.3334,38.6714,58.4186,27.46,44.5238,25.8457,30.6292,27.46l-5.9242,11.23c-.0082.6546-.0311,1.3567-.0547,2.0965-.0859,2.6632-.1879,5.8354.3243,7.7573,1.3006,4.8782,2.9407,9.7861,5.9006,13.4243C33.7731,65.5294,38,67.9181,44.5461,67.9215c6.5.0031,10.6765-2.4293,13.5343-6.0347a27.0993,27.0993,0,0,0,4.02-7.61q-.1318.3193-.2719.6344a20.8934,20.8934,0,0,1-4.8821,7.0064,10.8985,10.8985,0,0,1-8.1371,3.1076,5.0923,5.0923,0,0,1-3.1845-1.6126c-.4164-.3725-.786-.703-1.0343-.6863h-.1327c-.248-.0167-.6177.3136-1.0344.6863a5.0918,5.0918,0,0,1-3.1844,1.6126,10.8537,10.8537,0,0,1-8.03-3.0089,20.729,20.729,0,0,1-4.9578-7.0251,26.0653,26.0653,0,0,1-2.2088-8.66c-.2965-4.1644.5724-8.1391,2.9526-10.8252a9.5043,9.5043,0,0,1,8.0983-3.2043A22.7029,22.7029,0,0,1,40.7061,33.4a13.6064,13.6064,0,0,0,3.7981.8521l.02-.004h0l.02.004a13.4752,13.4752,0,0,0,3.7709-.85,22.7221,22.7221,0,0,1,4.5417-1.0913,9.7145,9.7145,0,0,1,4.4572.5933l-.0006.0014a9.6306,9.6306,0,0,1,3.69,2.5452c2.4191,2.6779,3.3032,6.6759,3.0044,10.87a24.7473,24.7473,0,0,1-.5748,3.7835q.2466-.8674.4762-1.736a25.7946,25.7946,0,0,0,.44-6.7663c-.0181-.9915-.0365-1.9769-.0147-2.9307ZM59.9386,26.0632,66.22,37.97l.1131.4961c-.0315,1.002-.0119,2.05.0076,3.1053a27.2175,27.2175,0,0,1-.502,7.3055c-1.3527,5.087-3.0472,10.281-6.1954,14.2526-3.2128,4.0532-7.8778,6.7881-15.0968,6.7847-7.25-.0037-11.9627-2.687-15.218-6.6883C26.1348,59.3005,24.404,54.15,23.0448,49.051c-.5842-2.192-.4768-5.5276-.3867-8.3276.027-.8425.0528-1.6367.057-2.293l.1131-.4609,6.281-11.9063.2464-.4663.5232-.061L44.41,23.8484l.1134-.0079h0l.1134.0079,14.5315,1.6875.5236.061.2461.4663ZM46.953,61.9288a3.0616,3.0616,0,0,0-4.858,0,3.48,3.48,0,0,1-1.9967,1.1047,8.9222,8.9222,0,0,1-6.5687-2.509,18.7242,18.7242,0,0,1-4.4578-6.3453,24.0414,24.0414,0,0,1-2.037-7.9881c-.261-3.6663.4587-7.1141,2.4526-9.3642a7.5628,7.5628,0,0,1,6.4185-2.54,21.4066,21.4066,0,0,1,4.2066,1.02,14.7394,14.7394,0,0,0,4.4113.9379v.0037h0v-.0037a14.5887,14.5887,0,0,0,4.3841-.9354,21.3946,21.3946,0,0,1,4.1437-1.0137,7.72,7.72,0,0,1,3.5427.4686h.004a7.6426,7.6426,0,0,1,2.9273,2.0234c2.022,2.2382,2.7519,5.703,2.4891,9.3929a24.0544,24.0544,0,0,1-2.0069,7.9268,18.89,18.89,0,0,1-4.3979,6.334,8.966,8.966,0,0,1-6.66,2.5923A3.48,3.48,0,0,1,46.953,61.9288Z"/></svg>