<svg width="89.0481px" height="89.0481px" viewBox="0 0 89.0481 89.0481" xmlns="http://www.w3.org/2000/svg"><defs><style>.a{fill:#c79092;}.b,.c{fill:#231f20;}.b,.d,.f,.g,.h{fill-rule:evenodd;}.d{fill:#4fa392;}.e,.f{fill:#f9ddd1;}.g{fill:#a5c3d2;}.h{fill:#58595b;}</style></defs><circle class="a" cx="44.5241" cy="44.5241" r="43.524"/><path class="b" d="M44.5241,0a44.5251,44.5251,0,1,1-31.483,13.0411A44.3855,44.3855,0,0,1,44.5241,0Zm30.069,14.455A42.5243,42.5243,0,1,0,87.048,44.5241,42.3916,42.3916,0,0,0,74.5931,14.455Z"/><ellipse class="c" cx="44.5241" cy="41.7801" rx="22.4971" ry="17.1513"/><path class="b" d="M44.5241,23.6288a27.3574,27.3574,0,0,1,16.5135,5.23c4.3146,3.2894,6.9837,7.8566,6.9837,12.9209s-2.6691,9.6316-6.9837,12.9209a27.3568,27.3568,0,0,1-16.5135,5.23,27.3563,27.3563,0,0,1-16.5135-5.23c-4.3147-3.2893-6.9838-7.8568-6.9838-12.9209s2.6691-9.6315,6.9838-12.9209a27.3569,27.3569,0,0,1,16.5135-5.23Zm15.3025,6.8167a25.348,25.348,0,0,0-15.3025-4.8166,25.3483,25.3483,0,0,0-15.3026,4.8166c-3.827,2.9174-6.1945,6.9268-6.1945,11.3346s2.3675,8.4172,6.1945,11.3346a25.3477,25.3477,0,0,0,15.3026,4.8167,25.3474,25.3474,0,0,0,15.3025-4.8167c3.8271-2.9174,6.1946-6.9267,6.1946-11.3346S63.6537,33.3629,59.8266,30.4455Z"/><path class="d" d="M64.0851,83.3771a43.5732,43.5732,0,0,1-39.1221,0c-.0516-.5808-.08-1.1678-.08-1.762a19.6407,19.6407,0,0,1,39.2814,0C64.1648,82.2093,64.1367,82.7963,64.0851,83.3771Z"/><path class="b" d="M64.5344,84.2678a44.4681,44.4681,0,0,1-40.0207,0,.9971.9971,0,0,1-.5479-.866c-.0258-.2991-.0456-.5856-.0581-.8575-.0159-.35-.0244-.6624-.0244-.9292a20.6408,20.6408,0,0,1,41.2815,0c0,.2668-.0085.5789-.0244.9292-.0133.29-.0348.5976-.0632.9187a.9951.9951,0,0,1-.5437.8031l.0009.0017ZM54.36,85.87a42.2253,42.2253,0,0,0,8.7738-3.1348l.0145-.2773c.01-.2364.0164-.5159.0164-.843a18.6407,18.6407,0,1,0-37.2813,0c0,.3271.006.6066.0165.843l.0144.2773A42.6847,42.6847,0,0,0,54.36,85.87Z"/><circle class="e" cx="44.5241" cy="66.439" r="7.8846" transform="matrix(0.1598, -0.9872, 0.9872, 0.1598, -28.1758, 99.7747)"/><path class="b" d="M44.5241,57.5544a8.8855,8.8855,0,1,1-6.2822,2.6025,8.856,8.856,0,0,1,6.2822-2.6025Zm4.8682,4.0164a6.8851,6.8851,0,1,0,2.0163,4.8682A6.863,6.863,0,0,0,49.3923,61.5708Z"/><path class="f" d="M63.5386,47.3567a4.9312,4.9312,0,1,1-4.9312,4.9312A4.931,4.931,0,0,1,63.5386,47.3567Z"/><path class="b" d="M63.5386,46.3567a5.9315,5.9315,0,1,1-4.1939,1.7373,5.913,5.913,0,0,1,4.1939-1.7373Zm2.78,3.1512a3.9322,3.9322,0,1,0,1.1512,2.78A3.92,3.92,0,0,0,66.3185,49.5079Z"/><path class="f" d="M25.51,47.3567a4.9312,4.9312,0,1,1-4.9311,4.9312A4.931,4.931,0,0,1,25.51,47.3567Z"/><path class="b" d="M25.51,46.3567a5.9317,5.9317,0,1,1-4.1938,1.7373A5.9133,5.9133,0,0,1,25.51,46.3567Zm2.78,3.1512a3.9324,3.9324,0,1,0,1.1511,2.78A3.92,3.92,0,0,0,28.29,49.5079Z"/><circle class="e" cx="44.5241" cy="47.126" r="19.5001"/><path class="b" d="M44.5241,26.6258A20.5012,20.5012,0,1,1,30.0285,32.63a20.4361,20.4361,0,0,1,14.4956-6.0047Zm13.0816,7.4186A18.5006,18.5006,0,1,0,63.0241,47.126,18.4423,18.4423,0,0,0,57.6057,34.0444Z"/><path class="b" d="M40.6091,55.292a.997.997,0,0,1-1.3045-1.508,7.6619,7.6619,0,0,1,5.0939-2.1169,8.0315,8.0315,0,0,1,5.0624,2.1013.9988.9988,0,0,1-1.2733,1.5392,6.1382,6.1382,0,0,0-3.805-1.6483A5.7574,5.7574,0,0,0,40.6091,55.292Z"/><path class="b" d="M32.95,51.1135a.9975.9975,0,1,1-1.0392,1.703l-8.1564-4.9714a.9975.9975,0,0,1,1.0392-1.703Z"/><path class="b" d="M57.1374,52.8165a.9975.9975,0,1,1-1.0392-1.703l8.1564-4.9714a.9975.9975,0,0,1,1.0392,1.703Z"/><path class="g" d="M42.48,53.1661a3.5665,3.5665,0,0,0-.6177-3.2931c-1.7274-1.8538-10.6347-2.4718-11.7385,1.6688a4.7967,4.7967,0,0,0,1.1928,4.6242c1.9843,2.4457,4.4419,2.897,7.6487,1.1505A6.4529,6.4529,0,0,0,42.48,53.1661Z"/><path class="b" d="M41.5035,52.9707a4.0706,4.0706,0,0,0,.06-1.5241,1.7442,1.7442,0,0,0-.432-.8938,3.6857,3.6857,0,0,0-1.6086-.7381,12.5822,12.5822,0,0,0-4.2866-.3167,6.1454,6.1454,0,0,0-3.5107,1.2665,2.1607,2.1607,0,0,0-.6372,1.0313,3.5471,3.5471,0,0,0-.0264,1.9454A5.2414,5.2414,0,0,0,32.09,55.5369a4.4964,4.4964,0,0,0,2.7484,1.7918,5.84,5.84,0,0,0,3.65-.8872,7.3019,7.3019,0,0,0,2.0863-1.6365,4.0975,4.0975,0,0,0,.9284-1.8343Zm2.0214-1.8836a6.2293,6.2293,0,0,1-1.4264,5.0071,9.2923,9.2923,0,0,1-2.6567,2.0974,7.7259,7.7259,0,0,1-4.9155,1.1061A6.3935,6.3935,0,0,1,30.543,56.795a7.1294,7.1294,0,0,1-1.3946-2.4993,5.4644,5.4644,0,0,1,.0105-3.0079,4.1334,4.1334,0,0,1,1.2075-1.9842,8.058,8.058,0,0,1,4.6746-1.79,14.6362,14.6362,0,0,1,4.99.371,5.5035,5.5035,0,0,1,2.5616,1.3085A3.7052,3.7052,0,0,1,43.5249,51.0871Z"/><path class="g" d="M46.5684,53.1661a3.5665,3.5665,0,0,1,.6177-3.2931c1.7274-1.8538,10.6347-2.4718,11.7385,1.6688a4.7967,4.7967,0,0,1-1.1928,4.6242c-1.9842,2.4457-4.4419,2.897-7.6487,1.1505A6.4529,6.4529,0,0,1,46.5684,53.1661Z"/><path class="b" d="M45.5919,53.3614a6.0078,6.0078,0,0,1-.0683-2.2743,3.7039,3.7039,0,0,1,.932-1.8938,5.5034,5.5034,0,0,1,2.5617-1.3085,14.6354,14.6354,0,0,1,4.99-.371,8.0586,8.0586,0,0,1,4.6746,1.79A4.1334,4.1334,0,0,1,59.89,51.2878,5.4569,5.4569,0,0,1,59.9,54.2957a7.1294,7.1294,0,0,1-1.3946,2.4993,6.3914,6.3914,0,0,1-3.9833,2.5027,7.7252,7.7252,0,0,1-4.9155-1.1061A9.29,9.29,0,0,1,46.95,56.0942a6.06,6.06,0,0,1-1.3581-2.7328Zm1.8927-1.9148a4.2082,4.2082,0,0,0,.9887,3.3584A7.3019,7.3019,0,0,0,50.56,56.4415a5.8411,5.8411,0,0,0,3.65.8872,4.4956,4.4956,0,0,0,2.7484-1.7918,5.24,5.24,0,0,0,1.0279-1.7957,3.5414,3.5414,0,0,0-.0264-1.9454,2.16,2.16,0,0,0-.6372-1.0313,6.1454,6.1454,0,0,0-3.5107-1.2665,12.582,12.582,0,0,0-4.2866.3167,3.6863,3.6863,0,0,0-1.6086.7381A1.7442,1.7442,0,0,0,47.4846,51.4466Z"/><path class="b" d="M37.28,49.4425a1,1,0,0,1,0-2H52.0183a1,1,0,0,1,0,2Z"/><path class="b" d="M57.7213,15.2807c3.7627,1.5667,7.14,5.3482,5.4,11.8375-4.1666,15.54-37.5437,11.6722-37.025,1.4406.2118-4.1786,4.7659-9.5006,16.7514-7.1153C49.46,22.76,58.6964,25.4639,57.7213,15.2807Z"/><path class="b" d="M58.1043,14.3589a10.4367,10.4367,0,0,1,5.6038,5.2047,11.3413,11.3413,0,0,1,.3781,7.8126c-1.6514,6.1605-7.4605,9.4722-14.1122,10.6472a35.5878,35.5878,0,0,1-10.2453.2409,28.4723,28.4723,0,0,1-8.9867-2.4831c-3.5368-1.7374-5.7957-4.2333-5.6418-7.2692a7.3655,7.3655,0,0,1,.1307-1.0647,8.5914,8.5914,0,0,1,3.8169-5.4547c2.1438-1.419,5.2469-2.3219,9.496-2.1064a31.1468,31.1468,0,0,1,4.4952.5768l.0037.0009,0-.0009c.2327.0462.8464.1741,1.4833.3067,2.723.5672,5.7155,1.19,8.0646.9655,2.6853-.2571,4.576-1.7886,4.1383-6.3606a.9963.9963,0,0,1,1.3745-1.014l.0006-.0017Zm3.7913,6.033A8.003,8.003,0,0,0,58.7911,16.95c-.0632,4.7486-2.5874,6.4414-6.0125,6.7694-2.6536.254-5.7975-.4008-8.6588-.9967-.3668-.0762-.7415-.1542-1.4675-.2988l0-.0008a29.1477,29.1477,0,0,0-4.2023-.5448c-3.7786-.1914-6.4795.5726-8.301,1.7781A6.6035,6.6035,0,0,0,27.1919,27.83a5.3964,5.3964,0,0,0-.0995.7755c-.1083,2.1354,1.7016,3.9994,4.525,5.3864A26.4808,26.4808,0,0,0,39.9628,36.28a33.5826,33.5826,0,0,0,9.6676-.2257c5.9448-1.05,11.1121-3.92,12.526-9.1941A9.4135,9.4135,0,0,0,61.8956,20.3919Z"/><path class="h" d="M32.942,33.2941a1,1,0,0,1,.6015-1.9066c2.9645.936,9.8269,2.359,15.7306,1.1729,3.5674-.7166,6.7751-2.4,8.4648-5.7651a.9958.9958,0,1,1,1.7813.8907c-2.0154,4.0136-5.739,6.0007-9.8555,6.8275C43.3457,35.7829,36.0746,34.2831,32.942,33.2941Z"/><path class="h" d="M35.5757,28.8411A.9959.9959,0,1,1,36.31,26.99a24.7936,24.7936,0,0,0,8.3308,1.1291,10.12,10.12,0,0,0,5.6216-1.5214.9979.9979,0,1,1,1.211,1.5863,11.99,11.99,0,0,1-6.7623,1.9272A27.1112,27.1112,0,0,1,35.5757,28.8411Z"/></svg>